<?xml version="1.0" standalone="no"?>
<!DOCTYPE svg PUBLIC "-//W3C//DTD SVG 20010904//EN"
 "http://www.w3.org/TR/2001/REC-SVG-20010904/DTD/svg10.dtd">
<svg version="1.0" xmlns="http://www.w3.org/2000/svg"
 width="498.000000pt" height="375.000000pt" viewBox="0 0 498.000000 375.000000"
 preserveAspectRatio="xMidYMid meet">

<g transform="translate(0.000000,375.000000) scale(0.100000,-0.100000)"
fill="#000000" stroke="none">
<path d="M1257 3730 c-209 -38 -411 -121 -592 -243 -123 -84 -323 -285 -404
-407 -92 -138 -206 -378 -189 -396 6 -5 331 -94 334 -91 1 1 14 31 30 67 145
330 417 572 756 674 128 38 202 49 343 49 259 0 498 -79 715 -236 147 -106
307 -306 386 -482 21 -47 43 -84 49 -81 6 2 84 23 174 47 187 50 176 31 112
180 -200 463 -618 800 -1126 909 -149 32 -440 37 -588 10z"/>
<path d="M3470 2815 l0 -365 375 0 375 0 0 365 0 365 -375 0 -375 0 0 -365z"/>
<path d="M4 2384 c-3 -31 -4 -136 -1 -233 4 -138 11 -198 30 -281 46 -192 117
-356 219 -502 62 -89 306 -368 322 -368 6 0 64 53 129 118 l117 117 -116 125
c-64 69 -139 158 -167 199 -135 201 -203 438 -195 685 l3 109 -160 43 c-88 24
-163 44 -167 44 -4 0 -10 -25 -14 -56z"/>
<path d="M2690 2046 l0 -375 33 -6 c46 -7 464 -43 647 -54 238 -15 587 -22
668 -14 l72 8 -365 371 -365 372 -82 6 c-253 20 -508 47 -580 62 l-28 6 0
-376z"/>
<path d="M2905 2411 c11 -4 127 -16 258 -26 l238 -19 344 -348 345 -348 445 0
445 0 0 375 0 375 -1047 -1 c-577 0 -1039 -4 -1028 -8z"/>
<path d="M752 2387 c-49 -18 -99 -63 -124 -110 -31 -58 -31 -156 -1 -213 41
-78 98 -111 256 -150 15 -3 39 -20 53 -37 29 -34 26 -67 -8 -104 -20 -22 -29
-23 -165 -23 l-143 0 0 -60 0 -60 187 0 c168 0 191 2 229 21 49 23 99 76 122
128 26 59 21 166 -10 233 -32 68 -68 95 -186 133 -109 36 -139 76 -89 123 21
20 34 22 135 22 l112 0 0 55 0 55 -167 -1 c-102 0 -181 -5 -201 -12z"/>
<path d="M1240 2107 l0 -293 26 -52 c29 -59 79 -106 143 -136 66 -29 208 -29
272 0 65 30 119 81 145 139 23 49 24 57 24 343 l0 292 -60 0 -60 0 0 -289 c0
-277 -1 -289 -21 -315 -57 -73 -151 -73 -208 0 -20 26 -21 38 -21 315 l0 289
-120 0 -120 0 0 -293z"/>
<path d="M2050 2387 c-19 -6 -56 -32 -81 -57 -73 -73 -88 -175 -39 -270 31
-62 80 -94 195 -129 92 -28 107 -35 120 -62 18 -34 13 -63 -18 -96 -19 -22
-28 -23 -164 -23 l-143 0 0 -60 0 -60 185 0 c204 0 225 4 289 60 76 68 103
175 71 285 -25 88 -67 124 -186 164 -129 43 -159 79 -106 129 21 20 34 22 135
22 l112 0 0 55 0 55 -167 -1 c-93 -1 -184 -6 -203 -12z"/>
<path d="M4140 1632 c0 -5 11 -19 25 -32 23 -21 25 -31 25 -104 0 -103 29
-416 41 -436 5 -9 9 108 9 283 l0 297 -50 0 c-27 0 -50 -4 -50 -8z"/>
<path d="M3410 1480 c0 -137 33 -460 57 -557 l5 -23 375 0 375 0 -6 28 c-14
69 -66 555 -66 627 0 6 -130 10 -370 10 l-370 0 0 -85z"/>
<path d="M1865 820 c-154 -148 -283 -270 -286 -270 -4 0 -136 117 -295 260
l-288 260 -128 -127 -127 -127 31 -35 c17 -20 193 -203 391 -408 l360 -372 92
87 c300 285 775 748 775 757 0 10 -231 245 -240 244 -3 0 -131 -121 -285 -269z"/>
</g>
</svg>
